<?xml version="1.0" encoding="utf-8"?>
<!-- Generator: Adobe Illustrator 23.0.3, SVG Export Plug-In . SVG Version: 6.00 Build 0)  -->
<svg version="1.1" id="Layer_1" xmlns="http://www.w3.org/2000/svg" xmlns:xlink="http://www.w3.org/1999/xlink" x="0px" y="0px"
	 viewBox="0 0 179.28 269.28" enable-background="new 0 0 179.28 269.28" xml:space="preserve">
<polygon id="Background" points="179.28,269.28 89.64,269.28 0,269.28 0,134.64 0,0 89.64,0 179.28,0 179.28,134.64 "/>
<path id="T6" fill="#FFFFFF" d="M136.59,133.15c-1.26-3.42-3.4-6.2-6.72-7.93c-4.19-2.19-8.31-1.66-12.4,0.24
	c-1.23,0.57-2.43,1.21-3.72,1.86c0-0.35-0.03-0.52,0-0.69c1.88-10.47,6.35-19.59,13.73-27.33c4.81-5.04,7.84-11.2,10.17-17.72
	c0.11-0.29,0.11-0.62,0.15-0.84c-2.55-0.69-4.08,0.1-5.42,2.39c-2.43,4.19-5.9,7.39-10.85,8.38c-2.9,0.58-5.85,1.13-8.79,1.2
	c-9.89,0.26-19.77,0.24-29.66,0.44c-6.1,0.12-12.22,0.2-18.29,0.72c-7.71,0.65-14.31,3.84-19.43,9.78
	c-4.43,5.14-7.51,11.03-9.67,17.42c-0.07,0.19-0.05,0.41-0.06,0.53c2.51,0.66,4.06-0.07,5.4-2.38c2.83-4.9,7.08-8.1,12.88-8.86
	c1.62-0.21,3.22-0.51,4.85-0.62c4.1-0.27,8.2-0.46,12.53-0.7c0,1.01,0,1.68,0,2.36c0,10.42-0.04,20.83,0.02,31.24
	c0.03,5.12,0.08,10.24,0.42,15.34c0.58,8.71,3.99,16.05,11.03,21.49c4.51,3.48,9.47,6.08,14.83,7.98c0.6,0.21,1.3,0.21,1.95,0.32
	c0.5-2.22,0.23-3.67-1.91-4.87c-5.61-3.14-9.03-7.93-9.54-14.52c-0.36-4.63-0.92-9.27-0.96-13.91c-0.13-14.66-0.06-29.32-0.06-43.98
	c0-0.5,0.05-1.02,0.09-1.92c8.12,0,16.14,0,24.11,0c-0.06,0.08-0.25,0.36-0.46,0.61c-7.41,8.75-11.49,18.9-12.4,30.31
	c-0.56,7.13,0.44,14.05,3.66,20.52c2.26,4.54,5.8,7.67,10.8,8.93c8.06,2.03,17.59-2.25,21.92-10.05
	C139.34,150.64,139.85,141.98,136.59,133.15z M124.7,160.4c-0.07,0.84-0.48,1.67-0.84,2.46c-0.95,2.08-2.54,3.32-4.88,3.36
	c-2.32,0.04-3.99-1.13-5.04-3.14c-1.65-3.18-1.85-6.69-2.04-10.18c-0.14-2.44-0.03-4.88-0.03-7.32l0.83-12.7
	c0.08-1.03,0.5-1.63,1.47-2.09c4.7-2.25,8.64-0.82,10.08,4.25c0.96,3.37,1.47,6.96,1.47,10.47
	C125.73,150.47,125.12,155.44,124.7,160.4z"/>
</svg>
