<?xml version="1.0" encoding="utf-8"?>
<!-- Generator: Adobe Illustrator 23.0.3, SVG Export Plug-In . SVG Version: 6.00 Build 0)  -->
<svg version="1.1" id="Layer_1" xmlns="http://www.w3.org/2000/svg" xmlns:xlink="http://www.w3.org/1999/xlink" x="0px" y="0px"
	 viewBox="-89.64 -134.64 179.28 269.28" enable-background="new -1250 -1250 1250 1250" xml:space="preserve">
<style>
	text {
		text-anchor: middle;
		dominant-baseline: middle;
	}
</style>
<rect id="Background" x="-89.64" y="-134.64" fill="#FFFFFF" stroke="#000000" stroke-width="1" stroke-miterlimit="10" width="179.28" height="269.28"/>
<g id="Indices">
	<text x="-55" y="-95" fill="#000000" font-family="'Roboto'" font-size="36px">X</text>
	<text x="-55" y="-65" stroke="#000000" stroke-width="1px" fill="#000000" font-family="'Consolas'" font-size="36px">♣</text>
	<text x="+55" y="-95" fill="#000000" font-family="'Roboto'" font-size="36px">X</text>
	<text x="+55" y="-65" stroke="#000000" stroke-width="1px" fill="#000000" font-family="'Consolas'" font-size="36px">♣</text>

	<text transform="rotate(180)" x="-55" y="-95" fill="#000000" font-family="'Roboto'" font-size="36px">X</text>
	<text transform="rotate(180)" x="-55" y="-65" stroke="#000000" stroke-width="1px" fill="#000000" font-family="'Consolas'" font-size="36px">♣</text>
	<text transform="rotate(180)" x="+55" y="-95" fill="#000000" font-family="'Roboto'" font-size="36px">X</text>
	<text transform="rotate(180)" x="+55" y="-65" stroke="#000000" stroke-width="1px" fill="#000000" font-family="'Consolas'" font-size="36px">♣</text>
</g>
<g id="Suit">
	<text text-anchor="middle" dominant-baseline="middle" x="0" y="7.5" stroke-linejoin="round" stroke="#000000" fill="#000000" stroke-width="5" stroke-miterlimit="10" font-family="'Consolas'" font-size="100px">♣</text>
</g>
<g id="Crown" display="none" transform="translate(0 7.5) translate(-5.88 -46.13)">
	<path fill="#b3b3b3" d="M-10.56,10.51l1.63,7.69l28.21-5.96l-1.63-7.69L-10.56,10.51z"/>
	<path fill="#333" d="M15.42-6.66L14.2-2.17l-24.31,5.14l-2.93-3.61c2.16-4.88,6.93-8.54,12.8-9.78S11.47-10.24,15.42-6.66z"/>
	<path fill="#999" d="M19.55-10.21L18.2,7.12l-28.21,5.96l-8.24-15.3l2.97-1.91c2.05,2.49,5.2,3.54,7.54,3.34l1.33-0.28
		c2.85-1.08,4.1-6.06,4.09-10.56l3.49-0.74C2.98-8.25,6.14-4.2,9.18-4.36l1.33-0.28c2.22-0.76,4.67-3,5.54-6.1L19.55-10.21z"/>
	<g id="Jewels">
		<path fill="#333" d="M1.27-3.26l-3.46,5.31l5.31,3.46L6.58,0.2L1.27-3.26z"/>
		<path fill="#333" d="M10.05,0.25l2.2,1.43l-1.43,2.2l-2.2-1.43L10.05,0.25z"/>
		<path fill="#333" d="M-5.34,3.5l2.2,1.43l-1.43,2.2l-2.2-1.43L-5.34,3.5z"/>
	</g>
	
</g>
</svg>